<svg width="211" height="396" viewBox="0 0 211 396" fill="none" xmlns="http://www.w3.org/2000/svg">
<circle cx="146.5" cy="376.125" r="8.5" fill="white"/>
<path d="M158.39 371.95C157.236 368.312 154.197 365.349 150.465 364.225C149.157 363.831 147.811 363.625 146.503 363.625C143.829 363.625 141.252 364.431 139.097 366.006C135.904 368.293 134 371.95 134 375.812C134 378.474 134.866 381.006 136.501 383.125L146.503 395.625L156.505 383.125C158.948 379.937 159.64 375.868 158.39 371.95ZM146.503 382.375C142.79 382.375 139.77 379.431 139.77 375.812C139.77 372.193 142.79 369.25 146.503 369.25C150.215 369.25 153.235 372.193 153.235 375.812C153.235 379.431 150.215 382.375 146.503 382.375Z" fill="#454545"/>
<path d="M227.36 340.532L226.239 339.761C225.29 341.141 224.254 342.462 223.218 343.782L224.281 344.64C225.316 343.319 226.411 341.912 227.36 340.532ZM229.232 337.626C230.154 336.101 231.017 334.661 231.794 333.162L230.554 332.564C229.777 334.062 228.914 335.502 228.051 336.941L229.232 337.626ZM221.978 347.249L220.975 346.305C219.853 347.567 218.645 348.769 217.437 349.971L218.38 351.001C219.588 349.799 220.77 348.451 221.978 347.249ZM233.32 330.019C234.011 328.461 234.675 326.757 235.219 325.226L233.861 324.8C233.316 326.331 232.712 327.949 232.021 329.507L233.32 330.019ZM215.792 353.287L214.849 352.256C213.937 353.027 212.966 353.884 211.969 354.596C211.645 354.882 211.235 355.108 210.852 355.48L211.65 356.537C211.974 356.251 212.443 355.939 212.767 355.653C213.91 354.914 214.821 354.144 215.792 353.287ZM236.255 321.873C236.687 320.137 237.06 318.487 237.346 316.778L235.955 316.583C235.728 318.206 235.355 319.856 234.837 321.533L236.255 321.873ZM208.948 358.618L208.21 357.474C206.803 358.412 205.395 359.35 203.988 360.288L204.726 361.431C206.133 360.493 207.541 359.555 208.948 358.618ZM237.772 313.386L237.805 313.155C237.945 311.472 238.027 309.876 237.935 308.162L236.512 308.199C236.517 309.854 236.522 311.51 236.354 313.046L236.322 313.278L237.772 313.386ZM201.652 363.129L200.973 361.899C199.539 362.692 198.045 363.57 196.524 364.303L197.117 365.473C198.724 364.8 200.159 364.007 201.652 363.129ZM237.666 304.673C237.489 302.899 237.252 301.212 236.87 299.551L235.5 299.879C235.882 301.54 236.119 303.228 236.27 304.856L237.666 304.673ZM194.044 367.171L193.51 365.915C191.989 366.648 190.382 367.321 188.776 367.995L189.309 369.251C190.916 368.578 192.582 367.818 194.044 367.171ZM186.155 370.512L185.621 369.256C184.073 369.843 182.467 370.517 180.833 371.045L181.221 372.328C182.914 371.714 184.607 371.1 186.155 370.512ZM236.018 296.17C235.49 294.536 234.876 292.843 234.202 291.236L232.946 291.769C233.679 293.29 234.207 294.924 234.649 296.498L236.018 296.17ZM178.039 373.444L177.651 372.16C176.017 372.688 174.443 373.13 172.809 373.658L173.197 374.942C174.831 374.413 176.465 373.885 178.039 373.444ZM232.737 288.195C231.917 286.615 231.039 285.121 230.042 283.8L228.898 284.538C229.836 285.946 230.774 287.353 231.507 288.874L232.737 288.195ZM227.934 280.952C226.851 279.572 225.562 278.304 224.301 277.183L223.357 278.185C224.618 279.307 225.675 280.542 226.818 281.836L227.934 280.952ZM221.632 274.966C221.201 274.669 220.77 274.373 220.338 274.076C219.303 273.364 218.295 272.798 217.201 272.172L216.516 273.353C217.524 273.919 218.532 274.485 219.481 275.138C219.912 275.435 220.343 275.731 220.775 276.028L221.632 274.966ZM213.605 271.859L214.117 270.559C212.559 269.869 210.882 269.351 209.205 268.833L208.839 270.105C210.456 270.709 212.046 271.168 213.605 271.859ZM205.48 269.447L205.76 268.115C204.051 267.829 202.428 267.602 200.6 267.488L200.552 268.852C202.234 268.993 203.916 269.134 205.48 269.447ZM197.128 268.658L197.177 267.293C195.521 267.298 193.807 267.39 192.006 267.422L192.103 268.759C193.758 268.754 195.559 268.722 197.128 268.658ZM188.641 269.173L188.544 267.836C186.916 267.987 185.228 268.224 183.395 268.487L183.578 269.884C185.384 269.474 187.013 269.324 188.641 269.173ZM180.262 270.271L180.019 268.961C178.564 269.23 177.021 269.44 174.983 269.817L175.226 271.128C177.205 270.837 178.806 270.541 180.262 270.271ZM171.818 271.833L171.575 270.523C169.828 270.846 168.227 271.142 166.539 271.379L166.782 272.689C168.383 272.393 170.13 272.07 171.818 271.833ZM163.347 273.249L163.164 271.853C161.476 272.09 159.789 272.327 158.101 272.563L158.284 273.96C159.972 273.723 161.659 273.486 163.347 273.249ZM154.882 274.288L154.785 272.951C153.156 273.101 151.382 273.279 149.668 273.37L149.765 274.708C151.479 274.616 153.108 274.466 154.882 274.288ZM146.276 274.976L146.179 273.639C144.465 273.73 142.809 273.735 141.095 273.827L141.046 275.191C142.82 275.013 144.561 275.068 146.276 274.976ZM137.708 275.055L137.757 273.691C136.102 273.696 134.36 273.642 132.619 273.588L132.57 274.952C134.252 275.092 135.994 275.147 137.708 275.055ZM129.146 274.757L129.195 273.393C127.513 273.252 125.831 273.112 124.148 272.971L124.013 274.276C125.722 274.562 127.405 274.703 129.146 274.757ZM120.503 274.022L120.698 272.631C119.015 272.49 117.306 272.204 115.597 271.918L115.403 273.309C117.112 273.595 118.88 273.795 120.503 274.022ZM112.071 272.796L112.351 271.464C110.728 271.237 109.079 270.865 107.515 270.552L107.37 270.579L107.089 271.911L107.234 271.884C108.798 272.197 110.421 272.423 112.071 272.796ZM103.617 271.047L103.897 269.715C102.161 269.284 100.511 268.911 98.9803 268.366L98.6134 269.639C100.29 270.157 101.881 270.615 103.617 271.047ZM95.4055 268.576L95.918 267.276C94.3005 266.672 92.6831 266.068 91.2707 265.351L90.6719 266.591C92.0844 267.308 93.6425 267.998 95.4055 268.576ZM87.5288 265.064L88.2138 263.883C87.1194 263.258 86.025 262.632 84.9899 261.92C84.6449 261.683 84.2999 261.445 83.9548 261.208L83.1836 262.329C83.5286 262.567 83.9599 262.863 84.3049 263.101C85.2537 263.753 86.2888 264.465 87.5288 265.064ZM140.183 180.569C140.538 180.052 140.894 179.534 141.25 179.017L140.129 178.245C139.18 179.626 138.231 181.006 137.222 182.472L138.343 183.243C138.85 182.321 139.589 181.432 140.183 180.569ZM143.036 176.052C143.958 174.526 144.735 173.027 145.512 171.528L144.272 170.93C143.495 172.428 142.632 173.868 141.769 175.307L143.036 176.052ZM136.127 185.912L135.065 185.054C134.029 186.375 132.907 187.636 131.786 188.898L132.788 189.842C133.91 188.58 135.032 187.319 136.127 185.912ZM147.124 168.445C147.815 166.887 148.565 165.242 149.11 163.711L147.81 163.199C147.206 164.816 146.516 166.374 145.825 167.932L147.124 168.445ZM130.399 192.391L129.483 191.507C128.717 192.251 127.892 193.081 127.126 193.825C126.743 194.197 126.301 194.655 125.772 195.054L126.716 196.084C127.244 195.685 127.686 195.227 128.069 194.855C128.894 194.025 129.72 193.195 130.399 192.391ZM150.232 160.417C150.75 158.74 151.268 157.063 151.64 155.414L150.309 155.133C149.936 156.783 149.478 158.373 148.873 159.991L150.232 160.417ZM124.014 198.165L123.216 197.108C121.954 198.019 120.633 199.016 119.021 200.067L119.759 201.21C121.371 200.159 122.752 199.076 124.014 198.165ZM81.2864 258.991C79.9387 257.81 78.7366 256.602 77.7663 255.427L76.7362 256.37C77.7927 257.605 78.9949 258.813 80.4288 260.053L81.2864 258.991ZM152.385 152.114C152.671 150.405 152.957 148.696 153.098 147.013L151.793 146.878C151.653 148.561 151.366 150.27 151.14 151.893L152.385 152.114ZM116.858 203.027L116.119 201.883C114.831 202.649 113.482 203.5 111.724 204.578L112.463 205.722C114.221 204.644 115.569 203.792 116.858 203.027ZM109.475 207.479L108.737 206.335L107.184 207.3C106.305 207.839 105.28 208.405 104.342 209.03L105.081 210.174C106.019 209.548 106.984 209.069 107.922 208.443L109.475 207.479ZM153.352 143.503C153.406 141.762 153.461 140.02 153.369 138.306L152.032 138.402C152.124 140.117 152.129 141.772 152.074 143.514L153.352 143.503ZM75.7126 252.87C74.6884 251.404 73.8961 249.969 73.395 248.481L72.1386 249.014C72.726 250.562 73.5452 252.142 74.6556 253.668L75.7126 252.87ZM102.152 211.844L101.414 210.701C99.8016 211.752 98.3672 212.544 97.019 213.396L97.7574 214.539C99.1056 213.688 100.599 212.809 102.152 211.844ZM153.041 134.903C152.864 133.129 152.627 131.442 152.244 129.781L150.934 130.023C151.23 131.625 151.554 133.372 151.704 135L153.041 134.903ZM94.9425 216.415L94.2041 215.272C92.651 216.237 91.2435 217.174 89.9223 218.172L90.6607 219.315C91.982 218.318 93.3894 217.38 94.9425 216.415ZM72.5115 245.332C72.2153 243.73 72.2965 242.135 72.5826 240.425L71.2509 240.145C70.9054 241.94 70.9374 243.741 71.1743 245.429L72.5115 245.332ZM217.502 33.2437L216.44 32.3862C215.404 33.7069 214.282 34.9684 213.074 36.1705L214.077 37.1143C215.285 35.9122 216.466 34.5645 217.502 33.2437ZM87.932 221.25L87.1343 220.193C85.6675 221.217 84.2869 222.301 83.052 223.357L83.9953 224.387C85.1709 223.417 86.4652 222.274 87.932 221.25ZM211.661 39.5185L210.718 38.4885C209.423 39.6313 208.188 40.6878 206.808 41.7712L207.605 42.8282C208.986 41.7448 210.367 40.6613 211.661 39.5185ZM151.453 126.314C150.984 124.594 150.456 122.96 149.869 121.412L148.612 121.946C149.199 123.493 149.728 125.127 150.169 126.702L151.453 126.314ZM81.4067 226.673L80.4634 225.643C79.1098 226.872 77.9286 228.219 76.8662 229.395L77.9282 230.252C78.9044 229.018 80.1124 227.816 81.4067 226.673ZM73.5 237.244C74.0718 235.859 74.8486 234.36 75.8571 232.894L74.7358 232.122C73.6679 233.675 72.8318 235.26 72.2006 236.732L73.5 237.244ZM204.817 44.8495L204.079 43.7063C202.672 44.6442 201.264 45.582 199.83 46.3743L200.509 47.6038C202.002 46.7253 203.41 45.7874 204.817 44.8495ZM197.349 49.2422L196.756 48.0721C195.235 48.805 193.715 49.538 192.108 50.2116L192.641 51.468C194.307 50.7081 195.914 50.0345 197.349 49.2422ZM148.521 118.198C147.848 116.592 146.969 115.098 146.091 113.604L144.947 114.342C145.74 115.777 146.618 117.271 147.292 118.878L148.521 118.198ZM189.46 52.5834L189.013 51.3863C187.465 51.9737 185.831 52.5018 184.197 53.0298L184.585 54.3131C186.219 53.7851 187.853 53.2571 189.46 52.5834ZM144.188 110.644C143.277 109.382 142.22 108.147 140.819 106.674L139.789 107.618C141.104 109.031 142.161 110.266 143.072 111.528L144.188 110.644ZM181.204 55.1643L180.876 53.7947C179.506 54.1233 177.991 54.4788 175.893 54.9421L176.136 56.2523C178.406 55.9078 179.921 55.5522 181.204 55.1643ZM172.9 57.0766L172.658 55.7663L172.221 55.8471C170.766 56.1164 169.25 56.4719 167.59 56.8543L167.832 58.1646C169.433 57.8684 170.949 57.5129 172.464 57.1573L172.9 57.0766ZM138.474 104.172L138.275 103.908C137.159 102.759 136.043 101.61 134.986 100.375L133.956 101.319C135.013 102.554 136.129 103.702 137.244 104.851L137.444 105.115L138.474 104.172ZM164.424 58.8702L164.095 57.5006C162.289 57.91 160.628 58.2924 159.113 58.6479L159.442 60.0175C161.103 59.6351 162.763 59.2526 164.424 58.8702ZM132.873 97.9055C131.79 96.525 130.852 95.1175 130.146 93.7424L128.916 94.4215C129.709 95.8559 130.587 97.3496 131.757 98.7895L132.873 97.9055ZM156.207 60.8418L155.819 59.5584C154.098 60.0271 152.378 60.4959 150.89 60.997L151.278 62.2803C152.853 61.8385 154.427 61.3967 156.207 60.8418ZM148.097 63.3957L147.622 62.0531C145.929 62.6673 144.322 63.341 142.775 63.9283L143.308 65.1848C144.797 64.6836 146.403 64.01 148.097 63.3957ZM128.68 90.7011C128.066 89.0079 127.624 87.4334 127.414 85.8913L126.017 86.0743C126.254 87.762 126.723 89.4821 127.337 91.1753L128.68 90.7011ZM140.294 66.7962L139.701 65.6261C138.121 66.4453 136.568 67.4101 135.22 68.2617L135.958 69.4049C137.279 68.4077 138.714 67.6155 140.294 66.7962ZM127.258 82.6076C127.34 81.0117 127.712 79.3618 128.343 77.89L127.044 77.3775C126.294 79.0218 125.949 80.8172 125.894 82.5588L127.258 82.6076ZM133.316 71.3993L132.432 70.283C130.933 71.539 129.811 72.8004 128.862 74.1805L129.983 74.9518C130.814 73.7442 131.935 72.4828 133.316 71.3993Z" fill="#BBBBBB"/>
<path d="M169.756 375.879L169.368 374.596C168.581 374.816 167.794 375.037 166.861 375.285L167.249 376.568C168.182 376.321 168.969 376.1 169.756 375.879Z" fill="#BBBBBB"/>
</svg>
