<svg width="16" height="12" viewBox="0 0 16 12" fill="none" xmlns="http://www.w3.org/2000/svg">
<path d="M15.8983 5.68906C15.7554 5.49353 12.3496 0.901367 7.99992 0.901367C3.65019 0.901367 0.244313 5.49353 0.101531 5.68888C-0.0338438 5.87438 -0.0338438 6.12597 0.101531 6.31147C0.244313 6.507 3.65019 11.0992 7.99992 11.0992C12.3496 11.0992 15.7554 6.50697 15.8983 6.31163C16.0339 6.12616 16.0339 5.87438 15.8983 5.68906ZM7.99992 10.0442C4.79588 10.0442 2.02085 6.99632 1.19938 5.99991C2.01979 5.00263 4.78901 1.95631 7.99992 1.95631C11.2038 1.95631 13.9787 5.00369 14.8005 6.00063C13.9801 6.99788 11.2108 10.0442 7.99992 10.0442Z" fill="#BBBBBB"/>
<path d="M7.9998 2.83545C6.25474 2.83545 4.83496 4.25523 4.83496 6.0003C4.83496 7.74536 6.25474 9.16515 7.9998 9.16515C9.74487 9.16515 11.1646 7.74536 11.1646 6.0003C11.1646 4.25523 9.74487 2.83545 7.9998 2.83545ZM7.9998 8.11018C6.83637 8.11018 5.88993 7.16371 5.88993 6.0003C5.88993 4.83689 6.8364 3.89042 7.9998 3.89042C9.16321 3.89042 10.1097 4.83689 10.1097 6.0003C10.1097 7.16371 9.16324 8.11018 7.9998 8.11018Z" fill="#BBBBBB"/>
</svg>
