<svg width="139" height="118" viewBox="0 0 139 118" fill="none" xmlns="http://www.w3.org/2000/svg">
<path d="M66.1868 24.4893L66.7922 25.8818C66.651 25.9928 66.3381 26.0887 65.8538 26.1694C65.3795 26.2502 64.7589 26.3208 63.9919 26.3813C63.1039 27.2492 62.2159 27.9707 61.3279 28.5459C60.45 29.1211 59.5771 29.5449 58.7092 29.8174C58.5074 29.8779 58.2753 29.9435 58.0129 30.0142C57.8515 30.0142 57.6749 29.9788 57.4832 29.9082C57.2914 29.8477 57.0795 29.7568 56.8474 29.6357C56.6052 29.4844 56.4185 29.3381 56.2874 29.1968C56.1562 29.0555 56.0906 28.9092 56.0906 28.7578C56.0906 28.4551 56.2369 28.1624 56.5295 27.8799C56.8222 27.5973 57.2511 27.3299 57.8162 27.0776C58.9464 26.5529 60.0614 26.0231 61.1614 25.4883C61.3228 25.4883 61.4389 25.5236 61.5095 25.5942C61.5802 25.6548 61.6155 25.7355 61.6155 25.8364C61.6155 26.1089 61.4187 26.341 61.0251 26.5327C60.6417 26.7144 60.45 26.8455 60.45 26.9263C60.5206 27.0272 60.5811 27.0776 60.6316 27.0776C60.7628 27.0776 61.0504 26.8809 61.4944 26.4873C61.9485 26.0938 62.1705 25.8465 62.1604 25.7456L62.0847 25.3975L62.115 25.3369C62.3774 25.1048 62.5691 24.8979 62.6902 24.7163C62.8214 24.5347 62.887 24.3883 62.887 24.2773C62.887 24.0251 62.7608 23.687 62.5085 23.2632C62.2563 22.8394 61.8778 22.3298 61.3733 21.7344C60.9898 21.2702 60.6064 20.8564 60.2229 20.4932C59.8394 20.1198 59.4711 19.7918 59.1179 19.5093C58.9766 19.3882 58.8556 19.2721 58.7546 19.1611C58.6537 19.04 58.573 18.929 58.5125 18.8281C58.4014 18.6263 58.3106 18.4598 58.24 18.3286C58.1794 18.1974 58.1239 18.1117 58.0735 18.0713C58.023 18.0107 57.9524 17.9401 57.8616 17.8594C57.7808 17.7686 57.6799 17.6676 57.5588 17.5566C57.3469 17.3346 57.1804 17.0269 57.0593 16.6333C56.9483 16.2397 56.8928 15.7503 56.8928 15.165C56.8928 14.7816 56.9433 14.4132 57.0442 14.0601C57.1552 13.6968 57.3116 13.3739 57.5134 13.0913C57.5437 13.0308 57.574 12.9601 57.6042 12.8794C57.6345 12.7987 57.6698 12.7078 57.7102 12.6069C57.9423 12.1326 58.3359 11.623 58.8909 11.0781C59.4459 10.5231 60.1724 9.93783 61.0706 9.32227C61.1917 9.26172 61.338 9.18099 61.5095 9.08008C61.6811 8.97917 61.8728 8.84798 62.0847 8.68652C62.2058 8.58561 62.337 8.49479 62.4783 8.41406C62.6296 8.33333 62.8062 8.25765 63.0081 8.18701C63.2805 8.07601 63.5883 7.95492 63.9314 7.82373C64.436 7.56136 64.8547 7.36963 65.1877 7.24854C65.5208 7.12744 65.773 7.06689 65.9446 7.06689C66.2776 7.06689 66.5248 7.16781 66.6863 7.36963C66.8578 7.57145 66.9436 7.8641 66.9436 8.24756C66.9436 8.67139 66.9083 9.01953 66.8376 9.29199C66.7771 9.55436 66.6913 9.73096 66.5803 9.82178C65.3896 10.7703 64.4309 11.4868 63.7043 11.9712C62.9778 12.4455 62.4682 12.6826 62.1755 12.6826C62.0343 12.6826 61.9233 12.6423 61.8425 12.5615C61.7618 12.4808 61.7214 12.3597 61.7214 12.1982C61.7214 11.9258 61.9485 11.6281 62.4026 11.3052C62.8567 10.9722 63.0787 10.7199 63.0686 10.5483L62.9324 10.4575C62.8819 10.4575 62.8214 10.4727 62.7507 10.5029C62.6902 10.5332 62.6246 10.5736 62.554 10.624C61.6659 11.3405 60.9949 11.9863 60.5408 12.5615C60.0968 13.1266 59.8748 13.6211 59.8748 14.0449C59.8748 14.3779 59.9303 14.716 60.0413 15.0591C60.1624 15.4022 60.3339 15.7554 60.5559 16.1187C60.7174 16.3709 60.9495 16.6938 61.2522 17.0874C61.565 17.4709 61.9586 17.9351 62.4329 18.48C63.0888 19.2368 63.5933 19.8221 63.9465 20.2358C64.2997 20.6496 64.4965 20.8665 64.5369 20.8867C64.7387 21.1491 64.9102 21.4115 65.0515 21.6738C65.1928 21.9362 65.2887 22.1885 65.3391 22.4307C65.3896 22.6224 65.4249 22.8595 65.4451 23.1421C65.4653 23.4246 65.4753 23.7677 65.4753 24.1714C65.4753 24.4035 65.5107 24.5397 65.5813 24.5801C65.6519 24.6104 65.768 24.6255 65.9294 24.6255C65.99 24.6255 66.0354 24.6154 66.0657 24.5952C66.106 24.5649 66.1464 24.5296 66.1868 24.4893ZM66.1716 24.4893C66.2625 24.3883 66.3533 24.2673 66.4441 24.126C66.5349 23.9746 66.656 23.8132 66.8074 23.6416L67.8064 22.7637C67.8468 22.7334 67.8669 22.693 67.8669 22.6426C67.877 22.5921 67.8821 22.5215 67.8821 22.4307C67.872 22.2995 67.8569 22.1935 67.8367 22.1128C67.8367 21.8807 67.8821 21.4922 67.9729 20.9473C68.0637 20.4023 68.1444 20.0744 68.2151 19.9634L68.1243 19.6758C68.2555 18.9997 68.4371 18.263 68.6692 17.4658C68.9114 16.6585 69.1838 15.7856 69.4866 14.8472C69.5875 14.6857 69.6934 14.4839 69.8044 14.2417C69.9154 13.9894 70.0416 13.7069 70.1829 13.394C70.3544 12.8693 70.5815 12.3193 70.864 11.7441C71.1466 11.1689 71.4644 10.5786 71.8176 9.97314C72.2919 9.17594 72.7107 8.57552 73.074 8.17188C73.4473 7.76823 73.7804 7.56641 74.073 7.56641C74.6583 7.56641 75.0569 7.68245 75.2688 7.91455C75.4908 8.13656 75.6018 8.56038 75.6018 9.18604C75.6018 9.34749 75.5715 9.59977 75.511 9.94287C75.4605 10.2759 75.4353 10.5282 75.4353 10.6997C75.4353 10.8713 75.3798 11.1134 75.2688 11.4263C75.1578 11.7391 75.1023 12.0267 75.1023 12.2891C75.0922 12.3698 75.067 12.4505 75.0266 12.5312L75.0417 12.7432C75.0014 12.8844 74.9408 13.056 74.8601 13.2578C74.7794 13.4596 74.6734 13.7018 74.5422 13.9844C74.4716 14.2367 74.3808 14.5293 74.2698 14.8623C74.1588 15.1953 74.0276 15.5586 73.8762 15.9521C73.8157 16.0531 73.7349 16.1792 73.634 16.3306C73.5432 16.4718 73.4423 16.6333 73.3313 16.8149C73.301 16.9461 73.2506 17.0975 73.1799 17.269C73.1093 17.4406 73.0134 17.6424 72.8923 17.8745C72.8318 17.9956 72.7511 18.1268 72.6501 18.2681C72.5492 18.4093 72.4281 18.591 72.2869 18.813C72.2263 18.9139 72.1607 19.04 72.0901 19.1914C72.0194 19.3428 71.9387 19.5143 71.8479 19.7061C71.7369 19.8776 71.5906 20.0895 71.4089 20.3418C71.2273 20.5941 71.0204 20.8918 70.7883 21.2349C70.4755 21.7899 70.1526 22.3197 69.8196 22.8242C69.8196 23.8031 70.0113 24.5448 70.3948 25.0493C70.7883 25.5438 71.3736 25.791 72.1506 25.791C72.2011 25.791 72.3525 25.7557 72.6047 25.6851C72.857 25.6144 73.2052 25.5034 73.6492 25.3521C73.7804 25.2713 73.9368 25.1603 74.1184 25.019C74.3 24.8677 74.5069 24.6911 74.739 24.4893L75.3293 25.8818C75.067 26.1139 74.8046 26.3511 74.5422 26.5933C74.2799 26.8354 74.0125 27.0726 73.74 27.3047C73.4272 27.5671 73.1093 27.7689 72.7864 27.9102C72.4635 28.0413 72.1456 28.1069 71.8328 28.1069C71.6713 28.1069 71.4241 28.0918 71.0911 28.0615C70.7581 28.0212 70.5058 28.001 70.3342 28.001C69.7691 28.001 69.2999 27.7739 68.9265 27.3198C68.5632 26.8657 68.3059 26.1846 68.1545 25.2764C68.1344 25.1855 68.1041 25.1048 68.0637 25.0342C68.0334 24.9635 67.9729 24.8828 67.8821 24.792C67.7509 24.9232 67.5945 25.0796 67.4128 25.2612C67.2413 25.4429 67.0294 25.6497 66.7771 25.8818L66.1716 24.4893ZM73.3918 12.6069L73.2859 12.5464C72.7208 13.0913 72.2919 13.606 71.9993 14.0903C71.7167 14.5747 71.5754 15.0439 71.5754 15.498C71.5754 15.5687 71.5401 15.6898 71.4695 15.8613C71.4089 16.0228 71.3131 16.2347 71.1819 16.4971C71.0204 16.8099 70.8539 17.153 70.6824 17.5264C70.4906 18.0915 70.3443 18.5506 70.2434 18.9038C70.1425 19.257 70.092 19.5093 70.092 19.6606L70.1829 19.7817C70.2737 19.7716 70.3847 19.6808 70.5159 19.5093C70.6471 19.3377 70.7984 19.0854 70.97 18.7524C71.0507 18.5708 71.1667 18.3589 71.3181 18.1167C71.4695 17.8745 71.641 17.5869 71.8328 17.2539C71.9942 17.0319 72.2515 16.4618 72.6047 15.5435C72.9579 14.6252 73.1497 14.0399 73.1799 13.7876C73.19 13.5858 73.2153 13.389 73.2556 13.1973C73.3061 12.9954 73.3515 12.7987 73.3918 12.6069ZM74.7087 24.4893C74.7794 24.4186 74.8551 24.3278 74.9358 24.2168C75.0064 24.0957 75.0922 23.9645 75.1931 23.8232L76.3586 23.021C76.4999 22.8494 76.7169 22.6325 77.0095 22.3701C77.3022 22.0977 77.6654 21.7697 78.0994 21.3862C78.1498 21.2752 78.2306 21.1491 78.3416 21.0078C78.4626 20.8564 78.6039 20.7101 78.7654 20.5688C78.9067 20.4377 79.0479 20.3166 79.1892 20.2056C79.3305 20.0845 79.4617 19.9684 79.5828 19.8574C79.7341 19.7061 79.8754 19.5547 80.0066 19.4033C80.1479 19.252 80.2891 19.1056 80.4304 18.9644C80.5919 18.8231 80.7584 18.7121 80.9299 18.6313C81.1015 18.5506 81.2882 18.5103 81.49 18.5103C81.712 18.5103 81.8785 18.5405 81.9895 18.6011C82.1106 18.6515 82.1762 18.7272 82.1863 18.8281C82.0854 19.0602 81.9794 19.2923 81.8684 19.5244L81.9592 19.6606C82.4032 19.4891 82.7514 19.363 83.0037 19.2822C83.2559 19.2015 83.4174 19.1611 83.488 19.1611C84.2247 19.1611 84.7747 19.3882 85.1379 19.8423C85.5113 20.2863 85.698 20.9624 85.698 21.8706C85.698 22.0422 85.6778 22.244 85.6375 22.4761C85.5971 22.7082 85.5315 22.9604 85.4407 23.2329C85.3398 23.5356 85.2288 23.7879 85.1077 23.9897C84.9967 24.1916 84.8907 24.3379 84.7898 24.4287C84.8302 24.5599 84.8756 24.6558 84.926 24.7163C84.9765 24.7668 85.0421 24.792 85.1228 24.792C85.2035 24.792 85.2843 24.7668 85.365 24.7163C85.4558 24.6659 85.5618 24.5902 85.6829 24.4893C85.7838 24.7113 85.8796 24.9434 85.9705 25.1855C86.0714 25.4176 86.1723 25.6497 86.2732 25.8818C86.0916 26.0433 85.915 26.1997 85.7434 26.3511C85.5719 26.5024 85.3902 26.6488 85.1985 26.79C84.9664 26.9818 84.7444 27.123 84.5325 27.2139C84.3306 27.2946 84.1288 27.335 83.927 27.335C83.6949 27.335 83.5032 27.2795 83.3518 27.1685C83.2004 27.0575 83.0793 26.901 82.9885 26.6992C82.7362 27.0322 82.4285 27.34 82.0652 27.6226C81.712 27.895 81.3184 28.1221 80.8845 28.3037C80.6322 28.4248 80.4001 28.5207 80.1882 28.5913C79.9864 28.6519 79.7997 28.6821 79.6282 28.6821C79.5777 28.6821 79.4768 28.7023 79.3254 28.7427C79.1842 28.783 79.0681 28.8032 78.9773 28.8032C78.4021 28.8032 77.8824 28.561 77.4182 28.0767C76.954 27.5923 76.7219 27.0524 76.7219 26.457C76.7219 26.2148 76.7774 25.897 76.8884 25.5034C76.9994 25.0998 77.0549 24.8626 77.0549 24.792C77.0549 24.7214 77.0297 24.6659 76.9792 24.6255C76.9389 24.575 76.8783 24.5498 76.7976 24.5498C76.7472 24.5498 76.6261 24.6255 76.4343 24.7769C76.2426 24.9282 75.9701 25.1452 75.6169 25.4277C75.5867 25.4681 75.5514 25.5286 75.511 25.6094C75.4706 25.6901 75.405 25.7809 75.3142 25.8818C75.2335 25.6497 75.1427 25.4176 75.0417 25.1855C74.9408 24.9434 74.8298 24.7113 74.7087 24.4893ZM81.9895 21.7192C81.939 21.7293 81.8634 21.7848 81.7625 21.8857C81.6716 21.9766 81.5808 22.0926 81.49 22.2339C81.3487 22.466 81.1873 22.7183 81.0056 22.9907C80.8946 23.1118 80.7735 23.2077 80.6423 23.2783C80.5212 23.3389 80.38 23.3843 80.2185 23.4146C80.1176 23.4246 80.0116 23.5256 79.9006 23.7173C79.7896 23.8989 79.6786 24.1663 79.5676 24.5195C79.4566 24.8324 79.3759 25.0998 79.3254 25.3218C79.275 25.5438 79.2498 25.7305 79.2498 25.8818C79.2498 26.1644 79.3204 26.3763 79.4617 26.5176C79.6029 26.6589 79.8199 26.7295 80.1125 26.7295C80.5767 26.7295 81.0006 26.6034 81.384 26.3511C81.7776 26.0887 82.1459 25.7002 82.489 25.1855C82.6505 24.9938 82.8018 24.8122 82.9431 24.6406C83.0238 24.5801 83.0894 24.4842 83.1399 24.353C83.1903 24.2118 83.2408 24.0402 83.2913 23.8384L83.5637 22.9756C83.4729 22.6729 83.3871 22.4357 83.3064 22.2642C83.2257 22.0825 83.1449 21.9715 83.0642 21.9312C83.0138 21.9009 82.9028 21.8706 82.7312 21.8403C82.5597 21.8 82.3124 21.7596 81.9895 21.7192ZM85.6677 24.4893C85.7081 24.4085 85.804 24.2723 85.9553 24.0806C86.0966 23.8787 86.3035 23.6315 86.5759 23.3389C86.8585 23.0563 87.0906 22.7939 87.2722 22.5518C87.4639 22.2995 87.6002 22.0775 87.6809 21.8857C87.802 21.6536 87.9433 21.361 88.1047 21.0078C88.2763 20.6546 88.463 20.2459 88.6648 19.7817C88.6951 19.7313 88.912 19.5698 89.3157 19.2974C89.7193 19.0148 89.9716 18.8735 90.0725 18.8735C90.2037 18.8735 90.2996 18.9694 90.3601 19.1611C90.4307 19.3428 90.4661 19.6253 90.4661 20.0088C90.4661 20.5739 90.456 21.0482 90.4358 21.4316C90.4257 21.805 90.3904 22.1077 90.3298 22.3398C90.35 22.3903 90.3702 22.4508 90.3904 22.5215C90.4106 22.5921 90.4358 22.6729 90.4661 22.7637C90.4459 22.8646 90.4207 22.9705 90.3904 23.0815C90.3904 24.2824 90.4358 25.1805 90.5266 25.7759C90.6174 26.3612 90.7385 26.6538 90.8899 26.6538C91.0816 26.6538 91.3541 26.4015 91.7073 25.897C92.0605 25.3823 92.4893 24.6104 92.9939 23.5811C93.4985 22.582 93.8819 21.7646 94.1443 21.1289C94.4067 20.4831 94.558 19.9987 94.5984 19.6758C94.6892 19.1107 94.8355 18.6868 95.0374 18.4043C95.2493 18.1117 95.5318 17.9653 95.885 17.9653C95.9859 17.9653 96.0566 17.9956 96.0969 18.0562C96.1373 18.1066 96.1575 18.1873 96.1575 18.2983C96.1575 18.702 96.102 19.1157 95.991 19.5396C95.8901 19.9533 95.7286 20.367 95.5066 20.7808C95.5066 21.0532 95.441 21.361 95.3098 21.7041C95.1887 22.0472 94.997 22.4256 94.7346 22.8394C94.6438 23.1118 94.5732 23.3792 94.5227 23.6416C94.5025 23.7728 94.2704 24.237 93.8264 25.0342C93.3925 25.8314 93.115 26.2956 92.9939 26.4268C92.9939 26.6689 92.8778 26.9616 92.6458 27.3047C92.4137 27.6377 92.0554 28.0212 91.571 28.4551C91.4701 28.5863 91.3642 28.7124 91.2532 28.8335C91.1422 28.9546 91.0362 29.0757 90.9353 29.1968C90.8243 29.3381 90.6982 29.444 90.5569 29.5146C90.4257 29.5954 90.2693 29.6357 90.0876 29.6357C89.5427 29.6357 89.129 29.4289 88.8464 29.0151C88.5639 28.6014 88.4226 27.9808 88.4226 27.1533C88.4529 27.002 88.4731 26.8708 88.4832 26.7598C88.4327 26.6387 88.3822 26.4823 88.3318 26.2905C88.2813 26.0887 88.246 25.8667 88.2258 25.6245C88.2258 25.3016 88.2208 25.0392 88.2107 24.8374C88.2107 24.6356 88.1956 24.4993 88.1653 24.4287L88.2712 24.0806L88.1199 23.9897C88.0492 24.02 87.8625 24.1916 87.5598 24.5044C87.2571 24.8172 86.8282 25.2764 86.2732 25.8818C86.2026 25.6598 86.1168 25.4378 86.0159 25.2158C85.915 24.9938 85.7989 24.7516 85.6677 24.4893ZM95.658 24.4893C95.7791 24.2773 95.9355 24.0654 96.1272 23.8535C96.3189 23.6315 96.5611 23.4045 96.8538 23.1724C96.884 22.9705 96.9143 22.7738 96.9446 22.582C96.9749 22.3802 96.995 22.1784 97.0051 21.9766C97.0354 21.8353 97.0808 21.6688 97.1414 21.4771C97.212 21.2853 97.2877 21.0785 97.3684 20.8564C97.4592 20.6344 97.5803 20.3569 97.7317 20.0239C97.8931 19.6909 98.1 19.3175 98.3523 18.9038C98.5642 18.6717 98.7862 18.4194 99.0183 18.147C99.2504 17.8644 99.4825 17.5819 99.7146 17.2993C99.8256 17.2085 99.9467 17.1227 100.078 17.042C100.209 16.9613 100.34 16.8704 100.471 16.7695C100.593 16.7292 100.729 16.6938 100.88 16.6636C101.031 16.6333 101.198 16.6182 101.38 16.6182C101.632 16.6182 101.834 16.6434 101.985 16.6938C102.147 16.7443 102.278 16.8301 102.379 16.9512C102.449 17.0319 102.515 17.153 102.575 17.3145C102.646 17.4759 102.712 17.6727 102.772 17.9048C102.802 18.1066 102.838 18.3286 102.878 18.5708C102.878 18.5103 102.858 18.5355 102.818 18.6465C102.787 18.7575 102.737 18.9341 102.666 19.1763L102.53 19.6606C102.389 20.145 102.071 20.7051 101.576 21.3408C101.082 21.9766 100.416 22.7031 99.5784 23.5205C99.5077 23.5911 99.4472 23.682 99.3967 23.793C99.3463 23.8939 99.321 24.0049 99.321 24.126C99.321 24.3379 99.3564 24.5246 99.427 24.686C99.5077 24.8475 99.6187 24.9686 99.76 25.0493C99.8407 25.1099 99.9669 25.1704 100.138 25.231C100.32 25.2915 100.532 25.347 100.774 25.3975C101.168 25.3672 101.526 25.3016 101.849 25.2007C102.172 25.0998 102.459 24.9787 102.712 24.8374C102.762 24.8071 102.843 24.7668 102.954 24.7163C103.065 24.6558 103.176 24.5801 103.287 24.4893C103.418 24.7819 103.534 25.0443 103.635 25.2764C103.736 25.5085 103.817 25.7103 103.877 25.8818C103.302 26.4469 102.777 26.8758 102.303 27.1685C101.839 27.451 101.41 27.5923 101.016 27.5923C100.855 27.6932 100.668 27.7689 100.456 27.8193C100.254 27.8597 100.012 27.8799 99.7297 27.8799C99.3564 27.8799 99.0234 27.8244 98.7307 27.7134C98.4482 27.6024 98.211 27.4409 98.0193 27.229C97.9184 27.1281 97.8175 26.9818 97.7166 26.79C97.6156 26.5882 97.5097 26.3511 97.3987 26.0786C97.3079 25.8566 97.2221 25.6951 97.1414 25.5942C97.0606 25.4832 96.9698 25.4277 96.8689 25.4277C96.7882 25.4277 96.6973 25.4681 96.5964 25.5488C96.4955 25.6195 96.3845 25.7305 96.2634 25.8818C96.2231 25.7305 96.1524 25.5438 96.0515 25.3218C95.9506 25.0998 95.8194 24.8223 95.658 24.4893ZM100.502 19.5698C100.28 19.5698 99.982 19.8625 99.6086 20.4478C99.2353 21.0229 99.0486 21.4468 99.0486 21.7192C99.0486 21.7798 99.0587 21.8252 99.0789 21.8555C99.1091 21.8757 99.1646 21.8857 99.2454 21.8857C99.3564 21.8857 99.4472 21.8302 99.5178 21.7192C99.5885 21.5981 99.6541 21.4871 99.7146 21.3862C99.8256 21.2853 99.9316 21.1794 100.032 21.0684C100.143 20.9473 100.249 20.8312 100.35 20.7202C100.471 20.5789 100.562 20.4377 100.623 20.2964C100.683 20.1551 100.714 20.0138 100.714 19.8726C100.714 19.7817 100.693 19.7111 100.653 19.6606C100.623 19.6001 100.572 19.5698 100.502 19.5698ZM103.287 24.4893C103.327 24.4186 103.383 24.3429 103.453 24.2622C103.514 24.1714 103.59 24.0654 103.68 23.9443C103.781 23.8636 103.913 23.7476 104.074 23.5962C104.235 23.4448 104.417 23.2682 104.619 23.0664C104.801 22.8646 105.023 22.6174 105.285 22.3247C105.547 22.022 105.865 21.6587 106.239 21.2349C106.4 21.0633 106.602 20.8464 106.844 20.584C107.086 20.3115 107.374 19.9886 107.707 19.6152C107.989 19.2822 108.292 19.035 108.615 18.8735C108.938 18.7121 109.281 18.6313 109.644 18.6313C110.008 18.6313 110.275 18.7474 110.447 18.9795C110.618 19.2015 110.704 19.5295 110.704 19.9634C110.704 20.1955 110.618 20.6395 110.447 21.2954C110.275 21.9513 110.008 22.8192 109.644 23.8989C109.553 24.1007 109.468 24.2925 109.387 24.4741C109.326 24.6053 109.286 24.7214 109.266 24.8223C109.246 24.9232 109.236 24.9989 109.236 25.0493C109.236 25.1099 109.271 25.1855 109.342 25.2764C109.392 25.2461 109.437 25.2057 109.478 25.1553C109.528 25.1048 109.584 25.0443 109.644 24.9736C109.725 24.8223 109.846 24.6659 110.008 24.5044C110.179 24.3328 110.381 24.1462 110.613 23.9443C110.704 23.7728 110.82 23.6063 110.961 23.4448C111.113 23.2733 111.279 23.1169 111.461 22.9756C111.501 22.9352 111.552 22.8696 111.612 22.7788C111.683 22.688 111.763 22.5921 111.854 22.4912C111.985 22.36 112.142 22.2238 112.323 22.0825C112.505 21.9412 112.717 21.7949 112.959 21.6436C113.232 21.5023 113.474 21.3913 113.686 21.3105C113.908 21.2298 114.1 21.1895 114.261 21.1895C114.574 21.1895 114.851 21.2651 115.094 21.4165C115.336 21.5679 115.543 21.805 115.714 22.1279C115.916 22.7536 116.108 23.3338 116.289 23.8687C116.4 24.1815 116.521 24.4136 116.653 24.5649C116.794 24.7163 116.95 24.792 117.122 24.792C117.253 24.792 117.369 24.7668 117.47 24.7163C117.581 24.6659 117.682 24.5902 117.773 24.4893L118.378 25.8818C118.207 26.0231 118.03 26.1694 117.848 26.3208C117.667 26.4722 117.49 26.6185 117.319 26.7598C117.087 26.9717 116.87 27.123 116.668 27.2139C116.466 27.2946 116.264 27.335 116.062 27.335C115.83 27.335 115.608 27.2845 115.396 27.1836C115.184 27.0827 115.003 26.9313 114.851 26.7295C114.771 26.6488 114.67 26.5024 114.549 26.2905C114.427 26.0685 114.286 25.7961 114.125 25.4731C113.994 25.342 113.842 25.1704 113.671 24.9585C113.509 24.7365 113.317 24.4792 113.095 24.1865L112.959 24.1411C112.767 24.2017 112.576 24.2925 112.384 24.4136C112.202 24.5347 112.006 24.6911 111.794 24.8828C111.34 25.2865 111.012 25.5387 110.81 25.6396C110.608 25.7406 110.472 25.8566 110.401 25.9878C110.26 26.23 110.018 26.5428 109.675 26.9263C109.331 27.3097 108.903 27.7638 108.388 28.2886C108.257 28.4198 108.126 28.5509 107.994 28.6821C107.863 28.8032 107.732 28.9243 107.601 29.0454C107.47 29.1564 107.318 29.2321 107.147 29.2725C106.985 29.3229 106.804 29.3481 106.602 29.3481C106.198 29.3481 105.976 29.2119 105.936 28.9395C105.906 28.6569 105.875 28.3743 105.845 28.0918C105.996 27.668 106.168 27.1382 106.36 26.5024C106.551 25.8667 106.773 25.125 107.026 24.2773C107.026 24.2269 107.041 24.1613 107.071 24.0806C107.111 23.9897 107.157 23.8737 107.207 23.7324C107.258 23.6012 107.293 23.4902 107.313 23.3994C107.333 23.2985 107.344 23.2127 107.344 23.1421C107.344 23.0715 107.318 23.016 107.268 22.9756C107.217 22.9352 107.137 22.915 107.026 22.915C106.925 22.915 106.788 22.9756 106.617 23.0967C106.455 23.2178 106.259 23.4095 106.027 23.6719C105.744 23.9746 105.517 24.2118 105.345 24.3833C105.174 24.5549 105.058 24.6558 104.997 24.686C104.896 24.7567 104.775 24.8576 104.634 24.9888C104.503 25.12 104.351 25.2663 104.18 25.4277C104.16 25.4681 104.129 25.5286 104.089 25.6094C104.049 25.6901 103.983 25.7809 103.892 25.8818C103.852 25.7305 103.781 25.5438 103.68 25.3218C103.58 25.0998 103.448 24.8223 103.287 24.4893ZM117.758 24.4893L117.848 24.3833L117.894 24.2319C118.166 23.8586 118.646 23.3742 119.332 22.7788C120.018 22.1733 120.492 21.6839 120.755 21.3105C120.856 21.1491 120.972 21.033 121.103 20.9624C121.234 20.8918 121.365 20.8564 121.496 20.8564C121.85 20.8564 122.147 20.9473 122.389 21.1289C122.632 21.3005 122.793 21.5628 122.874 21.916C122.944 22.2288 123.01 22.5467 123.071 22.8696C123.131 23.1825 123.182 23.5003 123.222 23.8232C123.293 24.0251 123.378 24.3328 123.479 24.7466C123.58 25.1502 123.656 25.3823 123.706 25.4429C123.757 25.5438 123.832 25.6195 123.933 25.6699C124.034 25.7103 124.16 25.7305 124.312 25.7305C124.493 25.7305 124.68 25.7002 124.872 25.6396C125.064 25.569 125.26 25.453 125.462 25.2915C125.614 25.1603 125.77 25.0291 125.931 24.8979C126.103 24.7567 126.269 24.6204 126.431 24.4893L127.036 25.8818C126.875 26.0433 126.658 26.23 126.385 26.4419C126.123 26.6437 125.805 26.8809 125.432 27.1533C125.018 27.4561 124.665 27.6831 124.372 27.8345C124.08 27.9757 123.858 28.0464 123.706 28.0464C122.788 28.0464 122.193 27.9404 121.92 27.7285C121.648 27.5166 121.345 26.9263 121.012 25.9575C120.972 25.8768 120.911 25.7809 120.83 25.6699C120.75 25.5589 120.659 25.4277 120.558 25.2764C120.437 25.0443 120.331 24.8727 120.24 24.7617C120.149 24.6406 120.073 24.5801 120.013 24.5801C119.851 24.5801 119.635 24.6911 119.362 24.9131C119.09 25.125 118.757 25.4479 118.363 25.8818C118.313 25.7507 118.252 25.5942 118.181 25.4126C118.101 25.231 118.02 25.019 117.939 24.7769C117.919 24.7163 117.894 24.6608 117.864 24.6104C117.833 24.5599 117.798 24.5195 117.758 24.4893ZM124.085 12.5464C124.337 12.5464 124.519 12.5968 124.63 12.6978C124.751 12.7987 124.811 12.945 124.811 13.1367C124.751 13.4193 124.7 13.6564 124.66 13.8481C124.559 14.2114 124.468 14.5091 124.387 14.7412C124.317 14.9733 124.261 15.1398 124.221 15.2407C124.13 15.4627 124.004 15.6595 123.843 15.8311C123.691 15.9925 123.504 16.1388 123.282 16.27C123.05 16.4315 122.854 16.5475 122.692 16.6182C122.541 16.6787 122.435 16.7039 122.374 16.6938C122.203 16.6737 122.036 16.6585 121.875 16.6484C121.723 16.6283 121.572 16.6182 121.421 16.6182C121.289 16.5475 121.184 16.4113 121.103 16.2095C121.032 16.0076 120.997 15.7352 120.997 15.3921C120.997 15.0894 121.178 14.7109 121.542 14.2568C121.915 13.7926 122.243 13.5454 122.526 13.5151C122.697 13.3032 122.899 13.061 123.131 12.7886C123.232 12.7179 123.363 12.6624 123.525 12.6221C123.686 12.5716 123.873 12.5464 124.085 12.5464ZM126.9 23.8232L128.278 22.915C128.328 22.8646 128.389 22.799 128.459 22.7183C128.53 22.6274 128.611 22.5013 128.701 22.3398C128.772 22.2087 128.863 22.0977 128.974 22.0068C129.095 21.916 129.231 21.8353 129.383 21.7646C129.463 21.6637 129.579 21.5376 129.731 21.3862C129.882 21.2349 130.074 21.0583 130.306 20.8564C130.417 20.7959 130.558 20.7101 130.73 20.5991C130.901 20.478 131.088 20.3216 131.29 20.1299C132.208 19.262 133.01 18.6112 133.697 18.1772C134.393 17.7433 134.978 17.5264 135.452 17.5264C135.715 17.5264 135.906 17.5819 136.028 17.6929C136.159 17.8039 136.224 17.9603 136.224 18.1621C136.224 18.374 136.184 18.5607 136.103 18.7222C136.033 18.8836 135.917 19.0199 135.755 19.1309C135.503 19.3125 135.23 19.5143 134.938 19.7363C134.776 19.9482 134.58 20.1753 134.347 20.4175C134.115 20.6496 133.843 20.8817 133.53 21.1138C133.429 21.245 133.343 21.361 133.273 21.4619C133.222 21.5124 133.126 21.6032 132.985 21.7344C132.844 21.8656 132.657 22.0169 132.425 22.1885C132.324 22.4105 132.102 22.6981 131.759 23.0513C131.426 23.4045 130.977 23.8283 130.412 24.3228C130.341 24.3934 130.215 24.5549 130.033 24.8071C129.852 25.0594 129.615 25.3924 129.322 25.8062L129.428 25.9424C129.65 25.8717 129.882 25.7507 130.124 25.5791C130.366 25.4076 130.634 25.1805 130.927 24.8979C131.27 24.5851 131.547 24.3328 131.759 24.1411C131.981 23.9393 132.137 23.8081 132.228 23.7476C132.299 23.7072 132.37 23.6668 132.44 23.6265C132.511 23.5861 132.592 23.5356 132.682 23.4751C133.147 22.9201 133.58 22.5114 133.984 22.249C134.388 21.9766 134.761 21.8403 135.104 21.8403C135.316 21.8403 135.478 21.9261 135.589 22.0977C135.7 22.2591 135.765 22.5063 135.785 22.8394C135.765 23.3439 135.755 23.8283 135.755 24.2925C135.745 24.6154 135.831 24.908 136.012 25.1704C136.204 25.4227 136.451 25.5488 136.754 25.5488C136.845 25.5488 136.931 25.5236 137.011 25.4731C137.102 25.4227 137.193 25.3571 137.284 25.2764C137.355 25.1855 137.42 25.0998 137.481 25.019C137.551 24.9383 137.622 24.8576 137.693 24.7769C137.733 24.7567 137.788 24.7214 137.859 24.6709C137.94 24.6204 138.016 24.5599 138.086 24.4893C138.227 24.792 138.344 25.0594 138.434 25.2915C138.535 25.5135 138.611 25.7103 138.661 25.8818C138.429 26.0938 138.197 26.3158 137.965 26.5479C137.743 26.7699 137.506 26.9818 137.254 27.1836C136.951 27.4157 136.658 27.5923 136.376 27.7134C136.093 27.8244 135.811 27.8799 135.528 27.8799C134.872 27.8799 134.368 27.6932 134.014 27.3198C133.661 26.9465 133.454 26.3813 133.394 25.6245C133.394 25.5337 133.379 25.4429 133.348 25.3521C133.328 25.2511 133.278 25.1502 133.197 25.0493C133.147 25.0998 133.091 25.1553 133.031 25.2158C132.97 25.2663 132.899 25.3369 132.819 25.4277C132.687 25.5286 132.521 25.6548 132.319 25.8062C132.127 25.9575 131.9 26.1392 131.638 26.3511C131.285 26.7144 130.987 27.012 130.745 27.2441C130.503 27.4762 130.331 27.6427 130.23 27.7437C130.028 27.9152 129.791 28.0868 129.519 28.2583C129.256 28.4299 128.959 28.6064 128.626 28.7881C128.414 28.8991 128.232 28.9849 128.081 29.0454C127.929 29.116 127.818 29.1514 127.748 29.1514C127.263 29.1514 126.905 29.0353 126.673 28.8032C126.441 28.561 126.325 28.1927 126.325 27.6982C126.325 27.4258 126.385 27.1685 126.507 26.9263C126.618 26.674 126.789 26.4318 127.021 26.1997C127.041 26.0685 127.052 25.9626 127.052 25.8818C127.052 25.8314 127.036 25.7809 127.006 25.7305C126.986 25.6699 126.956 25.6043 126.915 25.5337C126.855 25.3924 126.789 25.236 126.719 25.0645C126.638 24.8828 126.552 24.6911 126.461 24.4893C126.502 24.4489 126.562 24.3732 126.643 24.2622C126.713 24.1411 126.799 23.9948 126.9 23.8232Z" fill="#BBBBBB"/>
<path d="M95.8845 48.0064C101.578 72.4769 80.6358 97.0435 63.5257 100.751C49.9542 103.796 34.1972 104.402 22.4812 95.6054C16.2057 90.8781 11.4495 82.3061 13.825 74.3338C17.5113 61.9455 27.7123 66.4476 30.1884 76.9718C31.9782 84.3689 28.1577 94.9512 22 99.5612C8.69512 109.475 -8.7099 113.237 -24.8519 110.151" stroke="#BBBBBB" stroke-linecap="round" stroke-linejoin="round" stroke-dasharray="4.01 4.01"/>
</svg>
