<svg width="143" height="155" viewBox="0 0 143 155" fill="none" xmlns="http://www.w3.org/2000/svg">
<path d="M95.1978 138.64C95.1978 138.075 95.2179 137.6 95.2583 137.217C95.3088 136.823 95.3643 136.515 95.4248 136.293C95.4046 136.122 95.3794 135.945 95.3491 135.764C95.3491 135.552 95.3743 135.199 95.4248 134.704C95.4753 134.21 95.5509 133.564 95.6519 132.767C95.7427 132 95.8184 131.409 95.8789 130.996C95.9495 130.572 96 130.314 96.0303 130.224C96.0101 130.052 95.9849 129.865 95.9546 129.664C95.9344 129.462 95.894 129.24 95.8335 128.998L95.5005 128.755L95.4248 128.574C95.445 128.291 95.4601 128.009 95.4702 127.726C95.4904 127.433 95.5257 127.141 95.5762 126.848C95.5964 126.485 95.6418 126.167 95.7124 125.895C95.7931 125.622 95.8739 125.385 95.9546 125.183C95.9849 125.133 96.0151 125.062 96.0454 124.971C96.0858 124.88 96.1362 124.785 96.1968 124.684C96.2876 124.32 96.3784 123.957 96.4692 123.594C96.5601 123.23 96.6559 122.877 96.7568 122.534C96.9082 122.191 97.1252 121.914 97.4077 121.702C97.6903 121.49 98.0334 121.354 98.437 121.293C98.7196 121.142 98.9618 121.031 99.1636 120.96C99.3654 120.879 99.5269 120.839 99.6479 120.839C99.7892 120.839 99.9002 120.894 99.981 121.005C100.062 121.116 100.102 121.273 100.102 121.475C100.102 121.555 100.062 121.838 99.981 122.322C99.9002 122.797 99.7741 123.458 99.6025 124.305C99.5723 124.588 99.5218 124.926 99.4512 125.319C99.3805 125.703 99.2847 126.162 99.1636 126.697C99.0122 127.292 98.8608 127.948 98.7095 128.665C98.5682 129.371 98.437 130.153 98.3159 131.011C98.2655 131.374 98.21 131.732 98.1494 132.085C98.0889 132.439 98.0334 132.797 97.9829 133.16C97.9224 133.574 97.8669 133.967 97.8164 134.341C97.776 134.704 97.7559 135.032 97.7559 135.325C97.7559 135.436 97.7609 135.542 97.771 135.643C97.7912 135.743 97.8013 135.839 97.8013 135.93C97.8215 136.041 97.8164 136.188 97.7861 136.369C97.766 136.551 97.7407 136.768 97.7104 137.02C97.6701 137.262 97.6348 137.484 97.6045 137.686C97.5742 137.878 97.5591 138.024 97.5591 138.125C97.5591 138.64 97.5692 139.058 97.5894 139.381C97.6196 139.694 97.6499 139.901 97.6802 140.002C97.7508 140.274 97.8215 140.567 97.8921 140.88C97.8921 141.051 97.665 141.309 97.2109 141.652C96.7568 141.985 96.4289 142.151 96.2271 142.151C96.106 142.151 95.995 142.106 95.894 142.015C95.8032 141.934 95.7074 141.808 95.6064 141.637C95.5358 141.475 95.4803 141.329 95.4399 141.198C95.3996 141.067 95.3794 140.945 95.3794 140.834C95.3794 140.774 95.3996 140.678 95.4399 140.547C95.4803 140.416 95.5005 140.32 95.5005 140.259C95.4198 139.957 95.3289 139.704 95.228 139.502C95.2078 139.603 95.1978 139.583 95.1978 139.442C95.1978 139.301 95.1978 139.033 95.1978 138.64ZM99.7085 137.489L99.769 137.368C99.8296 137.287 99.9103 137.187 100.011 137.065C100.102 136.944 100.213 136.803 100.344 136.642C101.061 135.976 101.757 135.183 102.433 134.265C103.119 133.337 103.795 132.272 104.461 131.071C104.542 130.96 104.633 130.814 104.734 130.632C104.835 130.451 104.946 130.224 105.067 129.951C105.067 129.891 105.052 129.845 105.021 129.815C104.991 129.785 104.941 129.77 104.87 129.77C104.81 129.77 104.709 129.79 104.567 129.83C104.436 129.86 104.335 129.875 104.265 129.875H102.373C102.292 129.875 102.156 129.87 101.964 129.86C101.782 129.85 101.651 129.845 101.57 129.845C101.469 129.795 101.374 129.754 101.283 129.724C101.202 129.684 101.121 129.643 101.041 129.603C100.919 129.563 100.824 129.512 100.753 129.452C100.692 129.381 100.662 129.3 100.662 129.209C100.662 128.564 100.728 128.069 100.859 127.726C101 127.383 101.212 127.211 101.495 127.211C101.777 127.211 102.04 127.227 102.282 127.257C102.534 127.277 102.756 127.307 102.948 127.348C103.099 127.317 103.24 127.287 103.372 127.257C103.644 127.257 103.876 127.267 104.068 127.287C104.26 127.307 104.406 127.333 104.507 127.363C104.638 127.333 104.764 127.307 104.885 127.287C105.016 127.257 105.158 127.227 105.309 127.196L105.809 127.348C106.162 127.307 106.535 126.813 106.929 125.864C107.332 124.916 107.761 124.441 108.215 124.441C108.458 124.441 108.644 124.517 108.775 124.668C108.907 124.82 108.972 125.042 108.972 125.334C108.972 125.567 108.902 125.874 108.76 126.258C108.629 126.631 108.553 126.914 108.533 127.105C108.553 127.146 108.579 127.191 108.609 127.242C108.649 127.282 108.705 127.333 108.775 127.393C108.836 127.433 108.876 127.504 108.896 127.605C108.927 127.696 108.942 127.812 108.942 127.953C108.942 128.559 108.912 129.028 108.851 129.361C108.801 129.684 108.715 129.85 108.594 129.86L107.564 130.072C107.544 130.173 107.519 130.299 107.489 130.451C107.458 130.592 107.418 130.758 107.368 130.95C107.196 131.455 107.004 132.096 106.792 132.873C106.581 133.65 106.343 134.568 106.081 135.627C105.92 136.475 105.793 137.161 105.703 137.686C105.622 138.211 105.582 138.564 105.582 138.746C105.582 138.907 105.607 139.028 105.657 139.109C105.708 139.19 105.783 139.23 105.884 139.23C105.945 139.23 106.162 139.084 106.535 138.791C106.919 138.498 107.448 138.064 108.125 137.489L108.715 138.882C108.614 138.993 108.473 139.124 108.291 139.275C108.109 139.427 107.892 139.588 107.64 139.76C107.539 139.871 107.413 139.997 107.262 140.138C107.11 140.269 106.944 140.426 106.762 140.607C106.581 140.809 106.399 141.011 106.217 141.213C106.046 141.415 105.869 141.611 105.688 141.803C105.445 142.066 105.208 142.252 104.976 142.363C104.744 142.484 104.527 142.545 104.325 142.545C103.881 142.545 103.548 142.414 103.326 142.151C103.114 141.889 103.008 141.49 103.008 140.956C103.008 140.37 103.028 139.866 103.069 139.442C103.109 139.008 103.175 138.66 103.266 138.397C103.306 138.317 103.336 138.246 103.356 138.186C103.356 138.085 103.372 137.948 103.402 137.777C103.432 137.605 103.467 137.403 103.508 137.171C103.568 136.778 103.634 136.384 103.705 135.991C103.816 135.749 103.932 135.491 104.053 135.219C104.053 135.168 104.012 135.123 103.932 135.083L103.78 135.173C103.629 135.416 103.432 135.673 103.19 135.945C102.948 136.208 102.66 136.485 102.327 136.778C101.812 137.272 101.288 137.772 100.753 138.276C100.723 138.327 100.667 138.403 100.586 138.503C100.506 138.604 100.415 138.73 100.314 138.882C100.264 138.761 100.203 138.609 100.132 138.428C100.052 138.236 99.9709 138.019 99.8901 137.777C99.87 137.716 99.8447 137.661 99.8145 137.61C99.7842 137.56 99.7489 137.52 99.7085 137.489ZM108.579 136.823L109.956 135.915C110.007 135.865 110.067 135.799 110.138 135.718C110.208 135.627 110.289 135.501 110.38 135.34C110.451 135.209 110.541 135.098 110.652 135.007C110.773 134.916 110.91 134.835 111.061 134.765C111.142 134.664 111.258 134.538 111.409 134.386C111.561 134.235 111.752 134.058 111.984 133.856C112.095 133.796 112.237 133.71 112.408 133.599C112.58 133.478 112.766 133.322 112.968 133.13C113.887 132.262 114.689 131.611 115.375 131.177C116.071 130.743 116.657 130.526 117.131 130.526C117.393 130.526 117.585 130.582 117.706 130.693C117.837 130.804 117.903 130.96 117.903 131.162C117.903 131.374 117.862 131.561 117.782 131.722C117.711 131.884 117.595 132.02 117.434 132.131C117.181 132.312 116.909 132.514 116.616 132.736C116.455 132.948 116.258 133.175 116.026 133.417C115.794 133.65 115.521 133.882 115.208 134.114C115.108 134.245 115.022 134.361 114.951 134.462C114.901 134.512 114.805 134.603 114.664 134.734C114.522 134.866 114.336 135.017 114.104 135.188C114.003 135.41 113.781 135.698 113.438 136.051C113.104 136.404 112.655 136.828 112.09 137.323C112.02 137.393 111.894 137.555 111.712 137.807C111.53 138.059 111.293 138.392 111 138.806L111.106 138.942C111.328 138.872 111.561 138.751 111.803 138.579C112.045 138.408 112.312 138.181 112.605 137.898C112.948 137.585 113.226 137.333 113.438 137.141C113.66 136.939 113.816 136.808 113.907 136.748C113.977 136.707 114.048 136.667 114.119 136.626C114.189 136.586 114.27 136.536 114.361 136.475C114.825 135.92 115.259 135.511 115.663 135.249C116.066 134.977 116.44 134.84 116.783 134.84C116.995 134.84 117.156 134.926 117.267 135.098C117.378 135.259 117.444 135.506 117.464 135.839C117.444 136.344 117.434 136.828 117.434 137.292C117.424 137.615 117.509 137.908 117.691 138.17C117.883 138.423 118.13 138.549 118.433 138.549C118.523 138.549 118.609 138.524 118.69 138.473C118.781 138.423 118.872 138.357 118.962 138.276C119.033 138.186 119.099 138.1 119.159 138.019C119.23 137.938 119.3 137.858 119.371 137.777C119.411 137.757 119.467 137.721 119.538 137.671C119.618 137.62 119.694 137.56 119.765 137.489C119.906 137.792 120.022 138.059 120.113 138.292C120.214 138.514 120.289 138.71 120.34 138.882C120.108 139.094 119.876 139.316 119.644 139.548C119.422 139.77 119.184 139.982 118.932 140.184C118.629 140.416 118.337 140.592 118.054 140.713C117.772 140.824 117.489 140.88 117.207 140.88C116.551 140.88 116.046 140.693 115.693 140.32C115.34 139.946 115.133 139.381 115.072 138.625C115.072 138.534 115.057 138.443 115.027 138.352C115.007 138.251 114.956 138.15 114.875 138.049C114.825 138.1 114.77 138.155 114.709 138.216C114.648 138.266 114.578 138.337 114.497 138.428C114.366 138.529 114.199 138.655 113.998 138.806C113.806 138.958 113.579 139.139 113.316 139.351C112.963 139.714 112.666 140.012 112.423 140.244C112.181 140.476 112.01 140.643 111.909 140.744C111.707 140.915 111.47 141.087 111.197 141.258C110.935 141.43 110.637 141.606 110.304 141.788C110.092 141.899 109.911 141.985 109.759 142.045C109.608 142.116 109.497 142.151 109.426 142.151C108.942 142.151 108.584 142.035 108.352 141.803C108.119 141.561 108.003 141.193 108.003 140.698C108.003 140.426 108.064 140.168 108.185 139.926C108.296 139.674 108.468 139.432 108.7 139.2C108.72 139.069 108.73 138.963 108.73 138.882C108.73 138.831 108.715 138.781 108.685 138.73C108.664 138.67 108.634 138.604 108.594 138.534C108.533 138.392 108.468 138.236 108.397 138.064C108.316 137.883 108.23 137.691 108.14 137.489C108.18 137.449 108.241 137.373 108.321 137.262C108.392 137.141 108.478 136.995 108.579 136.823ZM119.75 137.489C119.84 137.388 119.931 137.267 120.022 137.126C120.113 136.975 120.234 136.813 120.385 136.642L121.384 135.764C121.425 135.733 121.445 135.693 121.445 135.643C121.455 135.592 121.46 135.521 121.46 135.431C121.45 135.299 121.435 135.194 121.415 135.113C121.415 134.881 121.46 134.492 121.551 133.947C121.642 133.402 121.722 133.074 121.793 132.963L121.702 132.676C121.833 132 122.015 131.263 122.247 130.466C122.489 129.659 122.762 128.786 123.064 127.847C123.165 127.686 123.271 127.484 123.382 127.242C123.493 126.989 123.619 126.707 123.761 126.394C123.932 125.869 124.159 125.319 124.442 124.744C124.724 124.169 125.042 123.579 125.396 122.973C125.87 122.176 126.289 121.576 126.652 121.172C127.025 120.768 127.358 120.566 127.651 120.566C128.236 120.566 128.635 120.682 128.847 120.915C129.069 121.137 129.18 121.56 129.18 122.186C129.18 122.347 129.149 122.6 129.089 122.943C129.038 123.276 129.013 123.528 129.013 123.7C129.013 123.871 128.958 124.113 128.847 124.426C128.736 124.739 128.68 125.027 128.68 125.289C128.67 125.37 128.645 125.451 128.604 125.531L128.62 125.743C128.579 125.884 128.519 126.056 128.438 126.258C128.357 126.46 128.251 126.702 128.12 126.984C128.049 127.237 127.959 127.529 127.848 127.862C127.737 128.195 127.605 128.559 127.454 128.952C127.394 129.053 127.313 129.179 127.212 129.331C127.121 129.472 127.02 129.633 126.909 129.815C126.879 129.946 126.828 130.097 126.758 130.269C126.687 130.441 126.591 130.642 126.47 130.875C126.41 130.996 126.329 131.127 126.228 131.268C126.127 131.409 126.006 131.591 125.865 131.813C125.804 131.914 125.739 132.04 125.668 132.191C125.597 132.343 125.517 132.514 125.426 132.706C125.315 132.878 125.168 133.09 124.987 133.342C124.805 133.594 124.598 133.892 124.366 134.235C124.053 134.79 123.73 135.32 123.397 135.824C123.397 136.803 123.589 137.545 123.973 138.049C124.366 138.544 124.951 138.791 125.729 138.791C125.779 138.791 125.93 138.756 126.183 138.685C126.435 138.614 126.783 138.503 127.227 138.352C127.358 138.271 127.515 138.16 127.696 138.019C127.878 137.868 128.085 137.691 128.317 137.489L128.907 138.882C128.645 139.114 128.382 139.351 128.12 139.593C127.858 139.835 127.59 140.073 127.318 140.305C127.005 140.567 126.687 140.769 126.364 140.91C126.041 141.041 125.723 141.107 125.411 141.107C125.249 141.107 125.002 141.092 124.669 141.062C124.336 141.021 124.084 141.001 123.912 141.001C123.347 141.001 122.878 140.774 122.504 140.32C122.141 139.866 121.884 139.185 121.732 138.276C121.712 138.186 121.682 138.105 121.642 138.034C121.611 137.964 121.551 137.883 121.46 137.792C121.329 137.923 121.172 138.08 120.991 138.261C120.819 138.443 120.607 138.65 120.355 138.882L119.75 137.489ZM126.97 125.607L126.864 125.546C126.299 126.091 125.87 126.606 125.577 127.09C125.295 127.575 125.153 128.044 125.153 128.498C125.153 128.569 125.118 128.69 125.047 128.861C124.987 129.023 124.891 129.235 124.76 129.497C124.598 129.81 124.432 130.153 124.26 130.526C124.069 131.091 123.922 131.551 123.821 131.904C123.72 132.257 123.67 132.509 123.67 132.661L123.761 132.782C123.852 132.772 123.963 132.681 124.094 132.509C124.225 132.338 124.376 132.085 124.548 131.752C124.629 131.571 124.745 131.359 124.896 131.117C125.047 130.875 125.219 130.587 125.411 130.254C125.572 130.032 125.829 129.462 126.183 128.543C126.536 127.625 126.728 127.04 126.758 126.788C126.768 126.586 126.793 126.389 126.833 126.197C126.884 125.995 126.929 125.799 126.97 125.607ZM128.287 137.489C128.519 137.247 128.872 136.954 129.346 136.611C129.831 136.268 130.189 135.986 130.421 135.764C130.572 135.582 130.769 135.365 131.011 135.113C131.253 134.85 131.541 134.543 131.874 134.189C132.076 134.008 132.273 133.867 132.464 133.766C132.656 133.665 132.848 133.614 133.04 133.614C133.282 133.614 133.468 133.675 133.6 133.796C133.741 133.917 133.812 134.109 133.812 134.371C133.812 134.765 133.66 135.4 133.357 136.278C133.055 137.156 132.903 137.822 132.903 138.276C132.903 138.377 132.924 138.448 132.964 138.488C133.014 138.529 133.07 138.549 133.13 138.549L133.206 138.534C133.398 138.413 133.62 138.261 133.872 138.08C134.134 137.888 134.427 137.656 134.75 137.383C135.012 137.141 135.335 136.823 135.719 136.43C136.112 136.036 136.571 135.582 137.096 135.067C137.298 134.906 137.525 134.699 137.777 134.447C138.04 134.194 138.332 133.892 138.655 133.539C138.786 133.357 138.968 133.216 139.2 133.115C139.442 133.014 139.735 132.963 140.078 132.963C140.31 132.963 140.482 133.009 140.593 133.1C140.714 133.18 140.774 133.306 140.774 133.478C140.774 133.549 140.764 133.619 140.744 133.69C140.734 133.75 140.724 133.811 140.714 133.872C140.643 134.174 140.537 134.548 140.396 134.992C140.255 135.426 140.083 135.94 139.881 136.536C139.71 136.909 139.528 137.358 139.336 137.883C139.155 138.397 138.958 138.968 138.746 139.593L138.852 139.729C139.064 139.629 139.377 139.391 139.791 139.018C140.214 138.635 140.744 138.125 141.38 137.489L141.985 138.882C141.905 138.963 141.804 139.063 141.683 139.185C141.572 139.296 141.42 139.417 141.229 139.548C140.149 140.315 139.22 141.077 138.443 141.833C137.676 142.58 137.066 143.322 136.612 144.059C135.936 145.169 135.371 146.072 134.917 146.768C134.472 147.464 134.15 147.954 133.948 148.236C133.251 149.155 132.59 149.836 131.965 150.28C131.339 150.724 130.729 150.946 130.133 150.946C129.911 150.946 129.75 150.9 129.649 150.81C129.548 150.719 129.498 150.577 129.498 150.386C129.498 150.285 129.523 150.159 129.573 150.007C129.624 149.856 129.715 149.694 129.846 149.523C130.037 149.25 130.214 148.968 130.375 148.675L130.83 148.282C130.87 148.151 130.89 148.06 130.89 148.009C130.931 147.959 130.986 147.898 131.057 147.828C131.137 147.757 131.228 147.676 131.329 147.585C131.4 147.404 131.586 147.101 131.889 146.677C132.202 146.264 132.636 145.729 133.191 145.073C133.605 144.588 133.983 144.154 134.326 143.771C134.669 143.398 134.962 143.08 135.204 142.817C135.244 142.737 135.285 142.641 135.325 142.53C135.376 142.419 135.416 142.308 135.446 142.197C135.577 141.934 135.719 141.617 135.87 141.243C136.032 140.87 136.223 140.431 136.445 139.926C136.546 139.634 136.632 139.301 136.703 138.927C136.773 138.544 136.839 138.13 136.899 137.686C136.879 137.646 136.864 137.595 136.854 137.535C136.854 137.464 136.834 137.368 136.793 137.247C136.612 137.338 136.41 137.474 136.188 137.656C135.976 137.837 135.744 138.049 135.492 138.292C135.159 138.725 134.821 139.089 134.478 139.381C134.134 139.664 133.796 139.881 133.463 140.032C133.241 140.466 132.954 140.789 132.601 141.001C132.257 141.203 131.859 141.304 131.405 141.304C131.072 141.304 130.819 141.228 130.648 141.077C130.476 140.915 130.391 140.673 130.391 140.35C130.391 140.29 130.396 140.214 130.406 140.123C130.426 140.032 130.451 139.926 130.481 139.805C130.441 139.704 130.391 139.563 130.33 139.381C130.37 139.21 130.406 139.018 130.436 138.806C130.436 138.503 130.411 138.276 130.36 138.125C130.32 137.974 130.249 137.898 130.148 137.898L130.088 137.928C129.977 138.009 129.82 138.13 129.619 138.292C129.417 138.453 129.175 138.65 128.892 138.882C128.842 138.751 128.781 138.594 128.71 138.413C128.63 138.231 128.549 138.019 128.468 137.777C128.448 137.716 128.423 137.661 128.393 137.61C128.362 137.56 128.327 137.52 128.287 137.489Z" fill="#BBBBBB"/>
<path d="M1.02352 30.8327C18.914 13.1932 50.8025 18.2149 62.9029 30.8672C72.5904 40.8478 81.3393 53.9668 79.9596 68.5526C79.2075 76.3734 74.3834 84.9073 66.3446 87.047C53.8556 90.3762 52.3648 79.3259 60.0448 71.7162C65.4169 66.3255 76.4361 64.0543 83.584 66.8962C98.9883 73.0613 111.29 85.9363 117.092 101.313" stroke="#BBBBBB" stroke-linecap="round" stroke-linejoin="round" stroke-dasharray="4.01 4.01"/>
</svg>
